<svg xmlns="http://www.w3.org/2000/svg" viewBox="0 0 64 64">
  <rect width="64" height="64" rx="18" fill="#2f4f35"/>
  <rect x="2" y="2" width="60" height="60" rx="16" fill="none" stroke="#cbd8c3" stroke-opacity=".35" stroke-width="2"/>
  <path fill="#f8fff4" d="M22.7 38.8c-4.9 0-8.3-3.3-8.3-7.2 0-4 3.4-7.2 8.3-7.2 2 0 3.8.5 5.1 1.5l-2 4.1c-.8-.7-1.8-1-3-1-1.9 0-3.2 1.1-3.2 2.6s1.3 2.7 3.2 2.7c1.2 0 2.3-.4 3.1-1.1l2 4.1c-1.4 1-3.2 1.5-5.2 1.5Zm17.6 0c-4.1 0-7-1.7-8.6-4.1l4.4-2.3c.8 1.3 2.2 2 4.1 2 1.3 0 2-.3 2-.8 0-.7-1-1-3.4-1.3-3.1-.4-6.4-1.3-6.4-4.2 0-2.4 2.5-3.8 6.6-3.8 3.3 0 5.8 1.1 7.4 3.2l-4 2.4c-.8-.9-1.9-1.4-3.4-1.4-1 0-1.6.2-1.6.7 0 .6.9.8 3.3 1.1 3.6.4 6.7 1.4 6.7 4.3 0 2.7-2.6 4.2-7.1 4.2Z"/>
</svg>
